<mxfile host="app.diagrams.net" modified="2020-11-08T22:04:22.125Z" agent="5.0 (Macintosh; Intel Mac OS X 10_15_7) AppleWebKit/605.1.15 (KHTML, like Gecko) Version/14.0 Safari/605.1.15" etag="3UmfkUs_e2Um4PZxHAAn" version="13.9.2" type="github">
  <diagram id="C5RBs43oDa-KdzZeNtuy" name="Page-1">
    <mxGraphModel dx="946" dy="1806" grid="1" gridSize="10" guides="1" tooltips="1" connect="1" arrows="1" fold="1" page="1" pageScale="1" pageWidth="827" pageHeight="1169" math="0" shadow="0">
      <root>
        <mxCell id="WIyWlLk6GJQsqaUBKTNV-0" />
        <mxCell id="WIyWlLk6GJQsqaUBKTNV-1" parent="WIyWlLk6GJQsqaUBKTNV-0" />
        <mxCell id="WIyWlLk6GJQsqaUBKTNV-3" value="input&lt;br&gt;Пользователь вводит числа" style="rounded=1;whiteSpace=wrap;html=1;fontSize=12;glass=0;strokeWidth=1;shadow=0;" parent="WIyWlLk6GJQsqaUBKTNV-1" vertex="1">
          <mxGeometry x="330" y="150" width="120" height="40" as="geometry" />
        </mxCell>
        <mxCell id="inScYeWJf7PeECLS_Tc5-0" value="&lt;h1&gt;Дз 3_5&amp;nbsp;&lt;/h1&gt;&lt;h1&gt;&lt;span style=&quot;color: rgb(44 , 45 , 48) ; font-family: &amp;#34;arial&amp;#34; ; font-weight: 400 ; text-align: justify&quot;&gt;&lt;font style=&quot;font-size: 10px&quot;&gt;Программа запрашивает у пользователя строку чисел, разделенных пробелом. При нажатии Enter должна выводиться сумма чисел. Пользователь может продолжить ввод чисел, разделенных пробелом и снова нажать Enter. Сумма вновь введенных чисел будет добавляться к уже подсчитанной сумме. Но если вместо числа вводится специальный символ, выполнение программы завершается. Если специальный символ введен после нескольких чисел, то вначале нужно добавить сумму этих чисел к полученной ранее сумме и после этого завершить программу.&lt;/font&gt;&lt;/span&gt;&lt;/h1&gt;" style="text;html=1;strokeColor=none;fillColor=none;spacing=5;spacingTop=-20;whiteSpace=wrap;overflow=hidden;rounded=0;" vertex="1" parent="WIyWlLk6GJQsqaUBKTNV-1">
          <mxGeometry x="7" y="-30" width="820" height="170" as="geometry" />
        </mxCell>
        <mxCell id="inScYeWJf7PeECLS_Tc5-1" value="" style="endArrow=classic;html=1;exitX=0.5;exitY=1;exitDx=0;exitDy=0;entryX=0.5;entryY=0;entryDx=0;entryDy=0;" edge="1" parent="WIyWlLk6GJQsqaUBKTNV-1" source="WIyWlLk6GJQsqaUBKTNV-3" target="inScYeWJf7PeECLS_Tc5-44">
          <mxGeometry relative="1" as="geometry">
            <mxPoint x="430" y="300" as="sourcePoint" />
            <mxPoint x="390" y="220" as="targetPoint" />
          </mxGeometry>
        </mxCell>
        <mxCell id="inScYeWJf7PeECLS_Tc5-19" value="" style="endArrow=classic;html=1;exitX=0;exitY=0.5;exitDx=0;exitDy=0;" edge="1" parent="WIyWlLk6GJQsqaUBKTNV-1" source="inScYeWJf7PeECLS_Tc5-44">
          <mxGeometry relative="1" as="geometry">
            <mxPoint x="384" y="281.02" as="sourcePoint" />
            <mxPoint x="276" y="300" as="targetPoint" />
            <Array as="points">
              <mxPoint x="276" y="250" />
            </Array>
          </mxGeometry>
        </mxCell>
        <mxCell id="inScYeWJf7PeECLS_Tc5-20" value="Да" style="edgeLabel;resizable=0;html=1;align=center;verticalAlign=middle;" connectable="0" vertex="1" parent="inScYeWJf7PeECLS_Tc5-19">
          <mxGeometry relative="1" as="geometry" />
        </mxCell>
        <mxCell id="inScYeWJf7PeECLS_Tc5-21" value="" style="endArrow=classic;html=1;exitX=1;exitY=0.5;exitDx=0;exitDy=0;" edge="1" parent="WIyWlLk6GJQsqaUBKTNV-1" source="inScYeWJf7PeECLS_Tc5-44">
          <mxGeometry relative="1" as="geometry">
            <mxPoint x="450" y="260" as="sourcePoint" />
            <mxPoint x="470" y="320" as="targetPoint" />
            <Array as="points">
              <mxPoint x="470" y="250" />
            </Array>
          </mxGeometry>
        </mxCell>
        <mxCell id="inScYeWJf7PeECLS_Tc5-22" value="Нет" style="edgeLabel;resizable=0;html=1;align=center;verticalAlign=middle;" connectable="0" vertex="1" parent="inScYeWJf7PeECLS_Tc5-21">
          <mxGeometry relative="1" as="geometry" />
        </mxCell>
        <mxCell id="inScYeWJf7PeECLS_Tc5-35" value="" style="endArrow=classic;html=1;entryX=0.5;entryY=1;entryDx=0;entryDy=0;exitX=0;exitY=0.5;exitDx=0;exitDy=0;" edge="1" parent="WIyWlLk6GJQsqaUBKTNV-1" source="inScYeWJf7PeECLS_Tc5-47" target="inScYeWJf7PeECLS_Tc5-45">
          <mxGeometry relative="1" as="geometry">
            <mxPoint x="199" y="637" as="sourcePoint" />
            <mxPoint x="150" y="380" as="targetPoint" />
            <Array as="points">
              <mxPoint x="360" y="375" />
              <mxPoint x="360" y="510" />
              <mxPoint x="260" y="510" />
            </Array>
          </mxGeometry>
        </mxCell>
        <mxCell id="inScYeWJf7PeECLS_Tc5-36" value="Да" style="edgeLabel;resizable=0;html=1;align=center;verticalAlign=middle;" connectable="0" vertex="1" parent="inScYeWJf7PeECLS_Tc5-35">
          <mxGeometry relative="1" as="geometry">
            <mxPoint x="28.82" y="-50" as="offset" />
          </mxGeometry>
        </mxCell>
        <mxCell id="inScYeWJf7PeECLS_Tc5-41" value="" style="endArrow=classic;html=1;entryX=1;entryY=0.5;entryDx=0;entryDy=0;" edge="1" parent="WIyWlLk6GJQsqaUBKTNV-1" target="WIyWlLk6GJQsqaUBKTNV-3">
          <mxGeometry relative="1" as="geometry">
            <mxPoint x="470" y="432" as="sourcePoint" />
            <mxPoint x="525.04" y="200" as="targetPoint" />
            <Array as="points">
              <mxPoint x="470" y="510" />
              <mxPoint x="470" y="530" />
              <mxPoint x="540" y="530" />
              <mxPoint x="540" y="490" />
              <mxPoint x="540" y="170" />
            </Array>
          </mxGeometry>
        </mxCell>
        <mxCell id="inScYeWJf7PeECLS_Tc5-42" value="Нет" style="edgeLabel;resizable=0;html=1;align=center;verticalAlign=middle;" connectable="0" vertex="1" parent="inScYeWJf7PeECLS_Tc5-41">
          <mxGeometry relative="1" as="geometry">
            <mxPoint x="-95.99999999999999" y="30.019999999999996" as="offset" />
          </mxGeometry>
        </mxCell>
        <mxCell id="inScYeWJf7PeECLS_Tc5-44" value="&lt;span&gt;Это спец символ?&lt;/span&gt;" style="rhombus;whiteSpace=wrap;html=1;" vertex="1" parent="WIyWlLk6GJQsqaUBKTNV-1">
          <mxGeometry x="350" y="210" width="80" height="80" as="geometry" />
        </mxCell>
        <mxCell id="inScYeWJf7PeECLS_Tc5-45" value="&lt;span&gt;Выход&lt;/span&gt;" style="shape=parallelogram;perimeter=parallelogramPerimeter;whiteSpace=wrap;html=1;fixedSize=1;" vertex="1" parent="WIyWlLk6GJQsqaUBKTNV-1">
          <mxGeometry x="200" y="300" width="120" height="60" as="geometry" />
        </mxCell>
        <mxCell id="inScYeWJf7PeECLS_Tc5-47" value="Введеные символы содержат спец символ?" style="rhombus;whiteSpace=wrap;html=1;" vertex="1" parent="WIyWlLk6GJQsqaUBKTNV-1">
          <mxGeometry x="414" y="320" width="110" height="110" as="geometry" />
        </mxCell>
        <mxCell id="inScYeWJf7PeECLS_Tc5-48" value="&lt;span&gt;Просуммировать введение числа&lt;/span&gt;" style="rounded=0;whiteSpace=wrap;html=1;" vertex="1" parent="WIyWlLk6GJQsqaUBKTNV-1">
          <mxGeometry x="357" y="500" width="120" height="60" as="geometry" />
        </mxCell>
        <mxCell id="inScYeWJf7PeECLS_Tc5-49" value="Нет" style="edgeLabel;resizable=0;html=1;align=center;verticalAlign=middle;" connectable="0" vertex="1" parent="WIyWlLk6GJQsqaUBKTNV-1">
          <mxGeometry x="469" y="320" as="geometry">
            <mxPoint x="3" y="133" as="offset" />
          </mxGeometry>
        </mxCell>
      </root>
    </mxGraphModel>
  </diagram>
</mxfile>
